<mxfile host="www.draw.io" modified="2020-02-07T09:23:34.259Z" agent="Mozilla/5.0 (Macintosh; Intel Mac OS X 10_15_1) AppleWebKit/537.36 (KHTML, like Gecko) Chrome/79.0.3945.130 Safari/537.36" etag="TIp28Ii2x0MlgqkGn-r7" version="12.6.5" type="github">
  <diagram id="NnJ0kHk_b_wk4G5okQ3z" name="Page-1">
    <mxGraphModel dx="1796" dy="565" grid="1" gridSize="10" guides="1" tooltips="1" connect="1" arrows="1" fold="1" page="1" pageScale="1" pageWidth="850" pageHeight="1100" math="0" shadow="0">
      <root>
        <mxCell id="0"/>
        <mxCell id="1" parent="0"/>
        <mxCell id="hRXEMC6rzWnCKjfBJHDc-4" value="" style="group" parent="1" vertex="1" connectable="0">
          <mxGeometry x="-55" y="90" width="775" height="400" as="geometry"/>
        </mxCell>
        <mxCell id="hRXEMC6rzWnCKjfBJHDc-1" value="" style="verticalLabelPosition=bottom;html=1;verticalAlign=top;align=center;shape=mxgraph.floorplan.room;fillColor=#000000;aspect=fixed;" parent="hRXEMC6rzWnCKjfBJHDc-4" vertex="1">
          <mxGeometry width="675" height="360" as="geometry"/>
        </mxCell>
        <mxCell id="hRXEMC6rzWnCKjfBJHDc-3" value="" style="verticalLabelPosition=bottom;html=1;verticalAlign=top;align=center;shape=mxgraph.floorplan.wallU;fillColor=#000000;direction=south;" parent="hRXEMC6rzWnCKjfBJHDc-4" vertex="1">
          <mxGeometry x="675" width="100" height="360" as="geometry"/>
        </mxCell>
        <mxCell id="hRXEMC6rzWnCKjfBJHDc-10" value="" style="verticalLabelPosition=bottom;html=1;verticalAlign=top;align=center;shape=mxgraph.floorplan.wall;fillColor=#000000;direction=south;" parent="hRXEMC6rzWnCKjfBJHDc-4" vertex="1">
          <mxGeometry x="260" y="190" width="10" height="160" as="geometry"/>
        </mxCell>
        <mxCell id="hRXEMC6rzWnCKjfBJHDc-11" value="" style="verticalLabelPosition=bottom;html=1;verticalAlign=top;align=center;shape=mxgraph.floorplan.wall;fillColor=#000000;" parent="hRXEMC6rzWnCKjfBJHDc-4" vertex="1">
          <mxGeometry x="10" y="190" width="250" height="10" as="geometry"/>
        </mxCell>
        <mxCell id="hRXEMC6rzWnCKjfBJHDc-12" value="" style="verticalLabelPosition=bottom;html=1;verticalAlign=top;align=center;shape=mxgraph.floorplan.doorLeft;aspect=fixed;" parent="hRXEMC6rzWnCKjfBJHDc-4" vertex="1">
          <mxGeometry x="114.14" y="190" width="65.86" height="70" as="geometry"/>
        </mxCell>
        <mxCell id="hRXEMC6rzWnCKjfBJHDc-16" value="" style="verticalLabelPosition=bottom;html=1;verticalAlign=top;align=center;shape=mxgraph.floorplan.bed_double;direction=north;fillColor=#fff2cc;strokeColor=#d6b656;" parent="hRXEMC6rzWnCKjfBJHDc-4" vertex="1">
          <mxGeometry x="445" y="207" width="200" height="143" as="geometry"/>
        </mxCell>
        <mxCell id="hRXEMC6rzWnCKjfBJHDc-17" value="200cm" style="shape=dimension;whiteSpace=wrap;html=1;align=center;points=[];verticalAlign=bottom;spacingBottom=-5;labelBackgroundColor=#ffffff" parent="hRXEMC6rzWnCKjfBJHDc-4" vertex="1">
          <mxGeometry x="460" y="360" width="200" height="20" as="geometry"/>
        </mxCell>
        <mxCell id="hRXEMC6rzWnCKjfBJHDc-22" value="" style="verticalLabelPosition=bottom;html=1;verticalAlign=top;align=center;shape=mxgraph.floorplan.sink_double;" parent="hRXEMC6rzWnCKjfBJHDc-4" vertex="1">
          <mxGeometry x="160" y="10" width="110" height="80" as="geometry"/>
        </mxCell>
        <mxCell id="hRXEMC6rzWnCKjfBJHDc-23" value="" style="verticalLabelPosition=bottom;html=1;verticalAlign=top;align=center;shape=mxgraph.floorplan.doorLeft;aspect=fixed;" parent="hRXEMC6rzWnCKjfBJHDc-4" vertex="1">
          <mxGeometry x="1" y="92" width="89.41" height="95" as="geometry"/>
        </mxCell>
        <mxCell id="hRXEMC6rzWnCKjfBJHDc-24" value="" style="verticalLabelPosition=bottom;html=1;verticalAlign=top;align=center;shape=mxgraph.floorplan.refrigerator;fillColor=#f8cecc;strokeColor=#b85450;" parent="hRXEMC6rzWnCKjfBJHDc-4" vertex="1">
          <mxGeometry x="695" y="10" width="65" height="62" as="geometry"/>
        </mxCell>
        <mxCell id="hRXEMC6rzWnCKjfBJHDc-32" value="" style="verticalLabelPosition=bottom;html=1;verticalAlign=top;align=center;shape=mxgraph.floorplan.table;fillColor=#647687;strokeColor=#314354;fontColor=#ffffff;" parent="hRXEMC6rzWnCKjfBJHDc-4" vertex="1">
          <mxGeometry x="190" y="160" width="80" height="30" as="geometry"/>
        </mxCell>
        <mxCell id="hRXEMC6rzWnCKjfBJHDc-33" value="" style="verticalLabelPosition=bottom;html=1;verticalAlign=top;align=center;shape=mxgraph.floorplan.toilet;direction=south;" parent="hRXEMC6rzWnCKjfBJHDc-4" vertex="1">
          <mxGeometry x="180" y="220" width="80" height="60" as="geometry"/>
        </mxCell>
        <mxCell id="hRXEMC6rzWnCKjfBJHDc-36" value="鞋柜" style="text;html=1;align=center;verticalAlign=middle;resizable=0;points=[];autosize=1;rounded=0;fontStyle=1;fontColor=#FF0000;" parent="hRXEMC6rzWnCKjfBJHDc-4" vertex="1">
          <mxGeometry x="195" y="165" width="40" height="20" as="geometry"/>
        </mxCell>
        <mxCell id="hRXEMC6rzWnCKjfBJHDc-37" value="洗衣机" style="text;html=1;align=center;verticalAlign=middle;resizable=0;points=[];autosize=1;rounded=0;fontStyle=1;fontColor=#FF0000;" parent="hRXEMC6rzWnCKjfBJHDc-4" vertex="1">
          <mxGeometry x="700" y="31" width="50" height="20" as="geometry"/>
        </mxCell>
        <mxCell id="hRXEMC6rzWnCKjfBJHDc-38" value="" style="verticalLabelPosition=bottom;html=1;verticalAlign=top;align=center;shape=mxgraph.floorplan.dresser;rounded=0;fillColor=#dae8fc;strokeColor=#6c8ebf;" parent="hRXEMC6rzWnCKjfBJHDc-4" vertex="1">
          <mxGeometry x="560" y="10" width="100" height="65" as="geometry"/>
        </mxCell>
        <mxCell id="hRXEMC6rzWnCKjfBJHDc-39" value="" style="verticalLabelPosition=bottom;html=1;verticalAlign=top;align=center;shape=mxgraph.floorplan.water_cooler;rounded=0;fillColor=#e1d5e7;strokeColor=#9673a6;" parent="hRXEMC6rzWnCKjfBJHDc-4" vertex="1">
          <mxGeometry x="270" y="10" width="70" height="65" as="geometry"/>
        </mxCell>
        <mxCell id="hRXEMC6rzWnCKjfBJHDc-40" value="衣柜" style="text;html=1;align=center;verticalAlign=middle;resizable=0;points=[];autosize=1;rounded=0;fontStyle=1;fontColor=#FF0000;" parent="hRXEMC6rzWnCKjfBJHDc-4" vertex="1">
          <mxGeometry x="590" y="31" width="40" height="20" as="geometry"/>
        </mxCell>
        <mxCell id="hRXEMC6rzWnCKjfBJHDc-41" value="冰箱" style="text;html=1;align=center;verticalAlign=middle;resizable=0;points=[];autosize=1;rounded=0;fontStyle=1;fontColor=#FF0000;" parent="hRXEMC6rzWnCKjfBJHDc-4" vertex="1">
          <mxGeometry x="290" y="20" width="40" height="20" as="geometry"/>
        </mxCell>
        <mxCell id="hRXEMC6rzWnCKjfBJHDc-42" value="" style="verticalLabelPosition=bottom;html=1;verticalAlign=top;align=center;shape=mxgraph.floorplan.couch;rounded=0;direction=west;fillColor=#fff2cc;strokeColor=#d6b656;" parent="hRXEMC6rzWnCKjfBJHDc-4" vertex="1">
          <mxGeometry x="273" y="279" width="150" height="71" as="geometry"/>
        </mxCell>
        <mxCell id="hRXEMC6rzWnCKjfBJHDc-43" value="" style="verticalLabelPosition=bottom;html=1;verticalAlign=top;align=center;shape=mxgraph.floorplan.table;rounded=0;fillColor=#d5e8d4;strokeColor=#82b366;" parent="hRXEMC6rzWnCKjfBJHDc-4" vertex="1">
          <mxGeometry x="340" y="12" width="125" height="60" as="geometry"/>
        </mxCell>
        <mxCell id="hRXEMC6rzWnCKjfBJHDc-46" value="电脑桌" style="text;html=1;align=center;verticalAlign=middle;resizable=0;points=[];autosize=1;rounded=0;fontStyle=1;fontColor=#FF0000;" parent="hRXEMC6rzWnCKjfBJHDc-4" vertex="1">
          <mxGeometry x="402.5" y="31" width="50" height="20" as="geometry"/>
        </mxCell>
        <mxCell id="hRXEMC6rzWnCKjfBJHDc-49" value="" style="verticalLabelPosition=bottom;html=1;verticalAlign=top;align=center;shape=mxgraph.floorplan.chair;rounded=0;fontColor=#FF0000;direction=west;" parent="hRXEMC6rzWnCKjfBJHDc-4" vertex="1">
          <mxGeometry x="379" y="72" width="41" height="52" as="geometry"/>
        </mxCell>
        <mxCell id="hRXEMC6rzWnCKjfBJHDc-50" value="" style="verticalLabelPosition=bottom;html=1;verticalAlign=top;align=center;shape=mxgraph.floorplan.table;rounded=0;fillColor=#d5e8d4;strokeColor=#82b366;direction=west;" parent="hRXEMC6rzWnCKjfBJHDc-4" vertex="1">
          <mxGeometry x="290" y="191" width="116" height="78" as="geometry"/>
        </mxCell>
        <mxCell id="hRXEMC6rzWnCKjfBJHDc-51" value="茶几" style="text;html=1;align=center;verticalAlign=middle;resizable=0;points=[];autosize=1;rounded=0;fontStyle=1;fontColor=#FF0000;" parent="hRXEMC6rzWnCKjfBJHDc-4" vertex="1">
          <mxGeometry x="328" y="222.5" width="40" height="20" as="geometry"/>
        </mxCell>
        <mxCell id="hRXEMC6rzWnCKjfBJHDc-63" value="" style="verticalLabelPosition=bottom;html=1;verticalAlign=top;align=center;shape=mxgraph.floorplan.plant;rounded=0;fontColor=#ffffff;fillColor=#008a00;strokeColor=#005700;" parent="hRXEMC6rzWnCKjfBJHDc-4" vertex="1">
          <mxGeometry x="700" y="275" width="43.5" height="50" as="geometry"/>
        </mxCell>
        <mxCell id="hRXEMC6rzWnCKjfBJHDc-64" value="杂物" style="text;html=1;align=center;verticalAlign=middle;resizable=0;points=[];autosize=1;rounded=0;fontStyle=1;fontColor=#FF0000;" parent="hRXEMC6rzWnCKjfBJHDc-4" vertex="1">
          <mxGeometry x="701.75" y="240" width="40" height="20" as="geometry"/>
        </mxCell>
        <mxCell id="hRXEMC6rzWnCKjfBJHDc-70" value="70cm" style="shape=dimension;direction=north;whiteSpace=wrap;html=1;align=right;points=[];verticalAlign=middle;labelBackgroundColor=#ffffff;rounded=0;fontColor=#FF0000;" parent="hRXEMC6rzWnCKjfBJHDc-4" vertex="1">
          <mxGeometry x="250" y="90" width="40" height="70" as="geometry"/>
        </mxCell>
        <mxCell id="nFYtoSkYqAg1oLYbNiDR-1" value="" style="verticalLabelPosition=bottom;html=1;verticalAlign=top;align=center;shape=mxgraph.floorplan.table;rounded=0;fontColor=#FF0000;" vertex="1" parent="hRXEMC6rzWnCKjfBJHDc-4">
          <mxGeometry x="10" y="12" width="150" height="74" as="geometry"/>
        </mxCell>
        <mxCell id="nFYtoSkYqAg1oLYbNiDR-2" value="" style="verticalLabelPosition=bottom;html=1;verticalAlign=top;align=center;shape=mxgraph.floorplan.sink_1;rounded=0;fontColor=#FF0000;direction=west;" vertex="1" parent="hRXEMC6rzWnCKjfBJHDc-4">
          <mxGeometry x="114.14" y="300" width="55" height="50" as="geometry"/>
        </mxCell>
        <mxCell id="hRXEMC6rzWnCKjfBJHDc-5" value="238cm" style="shape=dimension;whiteSpace=wrap;html=1;align=center;points=[];verticalAlign=bottom;spacingBottom=-5;labelBackgroundColor=#ffffff" parent="1" vertex="1">
          <mxGeometry x="-40" y="460" width="240" height="40" as="geometry"/>
        </mxCell>
        <mxCell id="hRXEMC6rzWnCKjfBJHDc-9" value="405cm" style="shape=dimension;whiteSpace=wrap;html=1;align=center;points=[];verticalAlign=bottom;spacingBottom=-5;labelBackgroundColor=#ffffff" parent="1" vertex="1">
          <mxGeometry x="220" y="460" width="370" height="40" as="geometry"/>
        </mxCell>
        <mxCell id="hRXEMC6rzWnCKjfBJHDc-21" value="85cm" style="shape=dimension;direction=south;whiteSpace=wrap;html=1;align=left;points=[];verticalAlign=middle;labelBackgroundColor=#ffffff" parent="1" vertex="1">
          <mxGeometry x="-90" y="100" width="40" height="85" as="geometry"/>
        </mxCell>
        <mxCell id="hRXEMC6rzWnCKjfBJHDc-25" value="80cm" style="shape=dimension;direction=west;whiteSpace=wrap;html=1;align=center;points=[];verticalAlign=top;spacingTop=-8;labelBackgroundColor=#ffffff" parent="1" vertex="1">
          <mxGeometry x="625" y="50" width="95" height="40" as="geometry"/>
        </mxCell>
        <mxCell id="hRXEMC6rzWnCKjfBJHDc-19" value="360cm" style="shape=dimension;direction=north;whiteSpace=wrap;html=1;align=right;points=[];verticalAlign=middle;labelBackgroundColor=#ffffff" parent="1" vertex="1">
          <mxGeometry x="725" y="100" width="40" height="340" as="geometry"/>
        </mxCell>
        <mxCell id="hRXEMC6rzWnCKjfBJHDc-31" value="105cm" style="shape=dimension;direction=south;whiteSpace=wrap;html=1;align=left;points=[];verticalAlign=middle;labelBackgroundColor=#ffffff" parent="1" vertex="1">
          <mxGeometry x="-90" y="185" width="40" height="100" as="geometry"/>
        </mxCell>
        <mxCell id="hRXEMC6rzWnCKjfBJHDc-34" value="155cm" style="shape=dimension;direction=south;whiteSpace=wrap;html=1;align=left;points=[];verticalAlign=middle;labelBackgroundColor=#ffffff" parent="1" vertex="1">
          <mxGeometry x="-90" y="286" width="40" height="155" as="geometry"/>
        </mxCell>
        <mxCell id="hRXEMC6rzWnCKjfBJHDc-18" value="90cm" style="shape=dimension;direction=south;whiteSpace=wrap;html=1;align=left;points=[];verticalAlign=middle;labelBackgroundColor=#ffffff" parent="1" vertex="1">
          <mxGeometry x="-140" y="100" width="40" height="90" as="geometry"/>
        </mxCell>
        <mxCell id="hRXEMC6rzWnCKjfBJHDc-67" value="Label" style="shape=dimension;direction=west;whiteSpace=wrap;html=1;align=center;points=[];verticalAlign=top;spacingTop=-8;labelBackgroundColor=#ffffff;rounded=0;fontColor=#FF0000;" parent="1" vertex="1">
          <mxGeometry x="410" y="50" width="95" height="40" as="geometry"/>
        </mxCell>
      </root>
    </mxGraphModel>
  </diagram>
</mxfile>
